<svg fill="none" height="18" viewBox="0 0 18 18" width="18" xmlns="http://www.w3.org/2000/svg"><g fill="#000"><path d="m13.3183 10.3431c-.0351-.0168-1.3473-.66298-1.5805-.7469-.0952-.03419-.1972-.06756-.3056-.06756-.1772 0-.3261.0883-.442.26176-.1311.19485-.5279.6587-.6506.7973-.016.0183-.0378.0401-.0509.0401-.0118 0-.2148-.0836-.2763-.1103-1.40771-.6115-2.4762-2.08196-2.62271-2.32993-.02092-.03565-.0218-.05184-.02198-.05184.00515-.01888.05249-.06633.07691-.09082.07148-.07071.14891-.16393.22384-.2541.03547-.04272.071-.0855.10589-.12583.1087-.12647.15709-.22465.2132-.33838l.02939-.05908c.13699-.27217.01999-.50184-.01782-.57601-.03103-.06206-.58512-1.39933-.64403-1.53983-.14166-.33902-.32885-.49687-.58897-.49687-.02414 0 0 0-.10122.00426-.12326.00521-.79446.09357-1.09123.28064-.3147.19841-.84711.83087-.84711 1.94314 0 1.00105.63526 1.94624.90801 2.30571.00678.00906.01923.02747.03729.05389 1.04452 1.52545 2.34666 2.65595 3.66668 3.18325 1.27086.5077 1.87256.5663 2.21466.5663h.0001c.1438 0 .2588-.0112.3604-.0212l.0644-.0062c.439-.0389 1.4037-.5388 1.6232-1.1487.1728-.4803.2184-1.0051.1034-1.1956-.0788-.1295-.2145-.1946-.3864-.2772z"/><path d="m9.15977 0c-4.87496 0-8.841043 3.9363-8.841043 8.77466 0 1.56494.418792 3.09674 1.212133 4.43734l-1.5184839 4.4793c-.0282858.0835-.00724681.1759.054526.2388.0445909.0455.1050779.07.1668509.07.023669 0 .047513-.0035.070773-.0109l4.670654-1.4842c1.27812.6829 2.72268 1.0433 4.18465 1.0433 4.87447.0001 8.84017-3.9358 8.84017-8.77364 0-4.83836-3.9657-8.77466-8.84023-8.77466zm0 15.7206c-1.37565 0-2.70806-.3973-3.8534-1.1488-.03852-.0253-.08322-.0383-.12822-.0383-.02379 0-.04763.0036-.07083.011l-2.33971.7437.75529-2.2283c.02443-.0722.01222-.1517-.03278-.2132-.87218-1.1917-1.33323-2.5998-1.33323-4.07204 0-3.83047 3.14147-6.94683 7.00282-6.94683 3.86089 0 7.00199 3.11636 7.00199 6.94683.0001 3.83004-3.141 6.94594-7.00193 6.94594z"/></g></svg>